<svg width="49" height="60" viewBox="0 0 54 65" fill="none" xmlns="http://www.w3.org/2000/svg">
<path d="M25.3833 17.4103C25.3833 17.4103 21.1557 25.6977 19.1207 36.198C17.0855 46.6982 17.555 61.2482 17.555 61.2482" stroke="white" stroke-opacity="0.75" stroke-width="3" stroke-linecap="round" stroke-linejoin="round"/>
<path d="M44.0979 31.9284C44.639 32.2877 45.4954 32.5409 46.3343 32.7158C47.7925 33.0197 49.14 32.0174 49.102 30.5283C49.0314 27.7513 47.9481 23.2087 42.4349 19.5476C37.2298 16.091 32.0607 16.0437 28.802 16.5405C26.9433 16.8239 26.2032 18.8548 27.2699 20.4032C28.2219 21.7854 29.331 23.1813 30.0808 23.448C31.6465 24.0045 33.5305 22.5369 34.9025 23.448C36.2745 24.359 35.8663 26.462 37.2383 27.373C38.6102 28.2841 40.3902 27.0922 41.7621 28.0032C43.134 28.9144 42.7259 31.0174 44.0979 31.9284Z" stroke="white" stroke-opacity="0.75" stroke-width="3" stroke-linecap="round" stroke-linejoin="round"/>
<path d="M22.2528 22.1074C23.5958 21.6598 24.4268 20.1879 24.8921 19.0097C25.2768 18.0361 24.9332 16.9611 24.032 16.4285C22.0034 15.2293 17.6737 13.5885 10.9197 15.55C4.24358 17.4889 2.48 21.8999 2.03241 24.4978C1.82298 25.7134 2.65058 26.8129 3.87646 26.9492C4.75463 27.0468 5.71799 27.0035 6.29367 26.5148C7.55699 25.4425 7.89908 24.0372 9.31051 23.6591C10.7219 23.2808 11.9395 25.002 13.3511 24.6238C14.7626 24.2456 14.9564 22.1462 16.3678 21.7681C17.7794 21.3898 19.9043 22.8902 22.2528 22.1074Z" stroke="white" stroke-opacity="0.75" stroke-width="3" stroke-linecap="round" stroke-linejoin="round"/>
<path d="M33.212 4.88573C29.2971 6.45136 25.3827 14.2795 25.384 17.4108L45.7386 8.01702C43.5769 4.27287 37.1269 3.32011 33.212 4.88573Z" stroke="white" stroke-opacity="0.75" stroke-width="3" stroke-linecap="round" stroke-linejoin="round"/>
<path d="M22.2527 3.32007C28.5152 5.5458 27.5459 13.6667 25.3843 17.4107L6.59711 4.76303C8.16274 1.75445 15.9901 1.09434 22.2527 3.32007Z" stroke="white" stroke-opacity="0.75" stroke-width="3" stroke-linecap="round" stroke-linejoin="round"/>
<path d="M31.6466 50.2897C44.6169 50.2897 52 53.0936 52 56.5523C52 60.011 41.4856 62.8149 28.5153 62.8149C15.545 62.8149 5.03064 60.011 5.03064 56.5523C5.03064 55.7081 5.65699 54.9029 6.79246 54.168" stroke="white" stroke-opacity="0.75" stroke-width="3" stroke-linecap="round"/>
</svg>
